<?xml version="1.0" standalone="no"?>
<!DOCTYPE svg PUBLIC "-//W3C//DTD SVG 20010904//EN"
 "http://www.w3.org/TR/2001/REC-SVG-20010904/DTD/svg10.dtd">
<svg version="1.0" xmlns="http://www.w3.org/2000/svg"
 width="45.000000pt" height="30.000000pt" viewBox="0 0 3000.000000 2000.000000"
 preserveAspectRatio="xMidYMid meet">

<g transform="translate(0.000000,2000.000000) scale(0.100000,-0.100000)"
fill="#512309" stroke="none">
<path d="M10900 16643 c-436 -64 -1013 -198 -1545 -358 -1009 -305 -2235 -826
-2767 -1175 -45 -30 -46 -44 -23 -227 75 -576 370 -1155 860 -1687 369 -401
869 -783 1466 -1122 154 -87 570 -297 702 -354 42 -19 77 -36 77 -39 0 -3 -35
-21 -78 -40 -860 -383 -1658 -925 -2159 -1469 -530 -576 -829 -1189 -878
-1804 l-7 -87 83 -54 c411 -267 1236 -636 2167 -968 525 -187 1240 -382 1773
-483 205 -39 435 -76 471 -76 l23 0 -3 1537 c-2 1075 0 1571 8 1648 23 231 86
449 194 670 64 130 211 361 284 444 l39 45 189 -42 c1586 -354 3272 -442 4934
-257 538 60 1138 163 1632 280 l97 23 59 -77 c187 -241 337 -537 402 -791 57
-223 53 -99 57 -1857 l4 -1623 22 0 c46 0 350 52 587 100 756 153 1481 375
2337 716 628 250 1139 494 1482 707 l83 52 -6 97 c-8 127 -47 334 -90 484
-264 904 -1046 1751 -2241 2429 -143 81 -514 270 -675 344 l-115 53 80 36
c150 68 531 260 660 332 547 306 1004 641 1370 1005 327 324 552 626 731 981
160 318 258 654 279 960 l7 89 -39 24 c-433 275 -1078 574 -1918 888 -821 307
-1729 551 -2425 651 l-125 18 -6 -1620 c-6 -1741 -3 -1634 -55 -1843 -46 -186
-149 -424 -259 -598 -69 -110 -192 -274 -209 -281 -7 -3 -73 9 -147 26 -627
146 -1385 261 -2084 315 -724 56 -1559 59 -2260 9 -773 -55 -1568 -172 -2242
-331 -134 -32 -118 -39 -228 112 -192 266 -314 533 -382 837 l-27 123 -6 1625
-5 1626 -155 -23z m4680 -4303 c676 -63 1254 -216 1765 -466 147 -72 345 -183
345 -194 0 -9 -251 -147 -380 -209 -509 -242 -1054 -384 -1715 -448 -227 -21
-894 -24 -1115 -5 -693 62 -1258 207 -1779 458 -135 64 -371 195 -371 204 0 3
53 35 118 72 624 354 1322 547 2187 602 117 7 832 -3 945 -14z"/>
<path d="M20991 4734 c-178 -38 -277 -142 -324 -338 -20 -83 -15 -632 6 -724
35 -156 94 -244 195 -294 l67 -33 665 0 665 0 57 28 c72 35 140 110 168 185
46 122 53 189 53 502 1 273 -1 301 -21 374 -27 97 -57 149 -117 205 -55 50
-110 77 -203 96 -96 21 -1116 20 -1211 -1z m974 -363 c51 -23 91 -70 106 -123
7 -27 9 -107 7 -218 -4 -186 -13 -226 -61 -279 -45 -49 -63 -51 -412 -51 -307
0 -328 1 -365 20 -80 41 -99 103 -102 339 -2 159 0 180 19 222 20 45 57 79
104 98 13 5 168 10 344 10 290 1 324 -1 360 -18z"/>
<path d="M3600 4720 c-19 -19 -20 -33 -20 -467 0 -258 5 -475 10 -511 32 -192
138 -317 320 -374 74 -23 80 -23 550 -23 430 0 481 2 540 18 179 51 281 157
327 344 15 59 17 130 17 529 1 441 0 463 -18 483 -18 20 -29 21 -205 21 -102
0 -191 -4 -198 -8 -29 -19 -33 -70 -33 -476 0 -583 33 -541 -425 -541 -349 0
-363 3 -407 74 -23 36 -23 40 -28 479 -5 425 -6 444 -24 458 -15 11 -61 14
-203 14 -170 0 -184 -1 -203 -20z"/>
<path d="M5537 4722 c-16 -17 -17 -79 -17 -685 l0 -666 22 -15 c18 -13 54 -16
184 -16 144 0 164 2 185 19 l24 19 5 476 5 475 120 -146 c223 -273 420 -517
523 -648 159 -204 136 -195 543 -195 l309 0 -2 686 c-3 665 -4 686 -22 700
-29 20 -373 20 -402 0 -18 -14 -19 -34 -24 -492 l-5 -477 -85 104 c-219 269
-292 362 -365 464 -161 224 -282 357 -359 395 -40 19 -61 20 -333 20 -268 0
-291 -1 -306 -18z"/>
<path d="M7610 4040 l0 -700 215 0 214 0 3 143 3 142 73 -143 73 -144 427 5
c355 3 438 7 490 20 169 45 257 132 300 296 23 87 29 592 8 689 -39 187 -134
293 -321 359 l-80 28 -702 3 -703 3 0 -701z m1234 320 c59 -13 88 -40 116
-106 22 -54 24 -73 25 -219 0 -132 -3 -168 -18 -207 -21 -55 -62 -93 -115
-108 -22 -6 -189 -10 -424 -10 l-388 0 0 330 0 330 383 0 c210 0 400 -5 421
-10z"/>
<path d="M11383 4721 c-21 -13 -35 -33 -42 -58 -7 -25 -11 -255 -11 -664 0
-594 1 -627 18 -642 16 -15 47 -17 220 -17 189 0 203 1 222 20 19 19 20 33 20
318 l0 297 73 -140 73 -140 299 -5 c224 -4 306 -8 323 -18 37 -21 52 -71 52
-171 0 -90 11 -139 33 -153 17 -11 409 -9 427 2 23 14 21 294 -3 373 -21 68
-74 132 -130 156 l-37 16 63 46 c44 32 70 60 85 90 38 79 52 251 32 391 -21
147 -82 244 -183 289 l-52 24 -725 3 c-705 2 -726 2 -757 -17z m1234 -383 c25
-26 27 -34 28 -112 0 -74 -3 -87 -23 -109 -44 -47 -73 -50 -459 -54 l-363 -5
0 146 c0 127 2 146 18 155 11 7 146 10 394 8 l378 -2 27 -27z"/>
<path d="M16318 4711 l-33 -29 -3 -659 c-2 -611 -1 -659 15 -670 12 -10 72
-13 214 -13 173 0 199 2 218 18 20 17 21 25 24 317 l2 300 74 -142 74 -143
298 0 297 0 31 -26 c39 -32 51 -77 51 -189 0 -141 -11 -135 239 -135 148 0
210 3 219 12 18 18 16 279 -3 353 -22 84 -59 135 -122 165 l-53 26 32 19 c56
33 111 89 131 134 23 53 35 204 26 334 -8 96 -33 180 -72 239 -31 45 -106 94
-167 107 -34 7 -286 11 -755 11 l-705 0 -32 -29z m1217 -355 c46 -20 55 -42
55 -136 0 -72 -3 -84 -24 -105 -44 -44 -79 -48 -463 -52 l-363 -5 0 136 c0
123 2 138 20 156 19 19 33 20 380 20 288 0 367 -3 395 -14z"/>
<path d="M18222 4724 l-22 -15 0 -668 c0 -609 1 -670 17 -682 12 -10 60 -15
182 -17 157 -3 168 -2 194 18 l27 21 2 462 3 462 177 -325 c97 -179 214 -396
260 -482 l83 -157 195 -1 195 0 169 313 c93 171 210 386 260 477 l91 165 5
-458 5 -459 24 -19 c21 -17 41 -19 186 -19 145 0 165 2 186 19 l24 19 3 624
c2 342 0 642 -3 665 -11 75 -2 73 -316 73 -212 0 -287 -3 -312 -14 -66 -27
-110 -93 -246 -367 -130 -265 -258 -499 -271 -499 -12 0 -114 192 -256 480
-75 151 -151 294 -171 318 -66 80 -74 82 -390 82 -236 0 -282 -2 -301 -16z"/>
<path d="M22719 4719 c-20 -20 -20 -27 -17 -507 3 -464 5 -490 25 -549 55
-162 164 -262 333 -304 79 -20 960 -20 1040 0 188 46 300 159 347 348 15 59
17 131 17 529 1 441 0 463 -18 483 -18 20 -29 21 -205 21 -102 0 -191 -4 -198
-8 -29 -19 -33 -70 -33 -475 0 -467 -1 -471 -76 -518 l-39 -24 -315 0 c-297 0
-317 1 -348 20 -18 11 -43 36 -55 55 -22 34 -22 44 -27 478 -5 425 -6 444 -24
458 -15 11 -61 14 -203 14 -171 0 -184 -1 -204 -21z"/>
<path d="M24705 4728 c-11 -6 -28 -20 -37 -32 -16 -19 -18 -70 -18 -676 0
-497 3 -659 12 -668 9 -9 70 -12 215 -12 190 0 204 1 223 20 19 19 20 33 20
318 l0 297 74 -140 73 -140 305 -5 c323 -5 324 -5 351 -54 6 -12 14 -74 17
-138 9 -168 -7 -158 252 -158 l208 0 11 28 c17 41 5 306 -15 362 -28 75 -61
116 -116 142 l-50 24 57 40 c109 75 128 126 128 349 0 127 -4 172 -18 220 -37
121 -99 187 -207 219 -47 14 -144 16 -759 16 -494 -1 -712 -4 -726 -12z m1188
-369 c48 -13 67 -52 67 -138 0 -149 -40 -161 -527 -161 l-323 0 0 145 c0 127
2 145 18 154 24 14 714 14 765 0z"/>
<path d="M9786 4714 c-34 -11 -64 -31 -102 -68 -86 -87 -85 -83 -82 -628 3
-457 3 -464 26 -520 28 -70 92 -130 159 -149 39 -11 173 -14 691 -14 l644 0
19 24 c16 20 19 40 19 143 0 114 -8 153 -34 170 -6 4 -244 8 -528 8 -505 0
-519 1 -538 20 -19 19 -20 33 -20 218 l0 197 64 -120 64 -120 437 0 c401 0
439 1 449 17 8 14 -4 45 -60 155 l-70 138 -424 5 c-234 3 -431 9 -437 13 -8 5
-13 32 -13 73 0 112 -43 104 540 104 l501 0 24 25 c24 23 25 29 25 155 0 117
-2 132 -20 150 -20 20 -33 20 -652 19 -533 0 -641 -3 -682 -15z"/>
<path d="M14650 4398 c-449 -810 -570 -1034 -570 -1050 0 -17 17 -18 234 -18
175 0 236 3 243 13 6 6 73 126 149 266 76 140 139 250 141 245 2 -5 29 -67 61
-139 l58 -130 289 -5 290 -5 66 -120 66 -120 236 -3 237 -2 0 25 c0 14 -96
201 -218 423 -120 218 -254 462 -297 542 -43 80 -94 174 -113 210 -44 81 -115
157 -167 181 -35 16 -69 19 -281 19 l-240 0 -184 -332z m593 -262 c88 -168
106 -210 97 -221 -17 -20 -432 -22 -448 -2 -8 9 19 67 106 225 64 117 121 211
126 209 6 -2 60 -97 119 -211z"/>
</g>
</svg>
